# xmcd
#
# Track frame offsets: 
#        150
#        674
#        18825
#        34735
#        51871
#        73337
#        85093
#        100848
#        115256
#        133242
#        150272
#        171328
#        186712
#        204577
#        223253
#        240283
#        258531
#        288102
#        303440
#
# Disc length: 4401 seconds
#
# Revision: 0
# Processed by: cddbd v1.5.2PL0 Copyright (c) Steve Scherf et al.
# Submitted via: ExactAudioCopy v0.99pb4
#
DISCID=0d112f13
DTITLE=Various Artist - prevue promo 1047A-2
DYEAR=2000
DGENRE=pop
TTITLE0=blank - data
TTITLE1=Savage Garden - Hold Me
TTITLE2=Yve Adam - Imperfect Girl
TTITLE3=Donna Summer - Power Of One, The(Movie "Poke'Mon The Movie 200
TTITLE3=0 The Power Of One")
TTITLE4=Mollys Yes - Fall Down
TTITLE5=Evan And Jaron - Crazy For This Girl
TTITLE6=John The Whistler - I'm In Love
TTITLE7=Baha Men - Who Let The Dogs Out(Berman Bros. Remix)
TTITLE8=Roxette - Wish I Could Fly
TTITLE9=Mary J. Blige - Your Child(Junior Vasquez Remix)
TTITLE10=Eminem - Way I Am, The(Lyrics)
TTITLE11=Amanda Ghost - Idol
TTITLE12=Liquid Gang - Closer
TTITLE13=OPM - Heaven Is A Half Pipe (If I Die - Lyrics)
TTITLE14=Static-X - Bled For Days( Album Version)
TTITLE15=Static-X - Bled For Days(- Live Version)
TTITLE16=Jimmy Page and The Black Crowes - Ten Years Gone (Live Applause
TTITLE16=Tag)
TTITLE17=American Pearl - Free Your Mind
TTITLE18=Primus with Ozzy Osbourne - N.I.B.
EXTD=
EXTT0=
EXTT1=
EXTT2=
EXTT3=
EXTT4=
EXTT5=
EXTT6=
EXTT7=
EXTT8=
EXTT9=
EXTT10=
EXTT11=
EXTT12=
EXTT13=
EXTT14=
EXTT15=
EXTT16=
EXTT17=
EXTT18=
PLAYORDER=
